# xmcd
#
# Track frame offsets:
#	150
#	13940
#	25477
#	36290
#	50287
#	63060
#	74137
#	87225
#	101495
#	112657
#
# Disc length: 1678 seconds
#
# Revision: 1
# Processed by: cddbd v1.5.1PL0 Copyright (c) Steve Scherf et al.
# Submitted via: audiograbber 1.81.02
#
DISCID=7f068c0a
DTITLE=Various Artist - Blues Disk 1
DYEAR=2003
DGENRE=Blues
TTITLE0=Slim Harpo - I'm A King Bee
TTITLE1=Sonny Boy Williamson - Don't Start Me To Talkin'
TTITLE2=Junior Parker - Annie Get Your Yo-Yo
TTITLE3=Howlin' Wolf - Smokestack Lightnin'
TTITLE4=Big Mama Thorton - Hound Dog
TTITLE5=Dinah Washington - Good Daddy Blues
TTITLE6=Little Walter - Mean Old World
TTITLE7=Lowell Fulson - Reconsider Baby
TTITLE8=Louis Jordan - Weak Minded Blues
TTITLE9=Bo Diddley - I'm A Man
EXTD=
EXTT0=
EXTT1=
EXTT2=
EXTT3=
EXTT4=
EXTT5=
EXTT6=
EXTT7=
EXTT8=
EXTT9=
PLAYORDER=
